<?xml version="1.0" standalone="no"?>
<!DOCTYPE svg PUBLIC "-//W3C//DTD SVG 20010904//EN"
 "http://www.w3.org/TR/2001/REC-SVG-20010904/DTD/svg10.dtd">
<svg version="1.0" xmlns="http://www.w3.org/2000/svg"
 width="200.000000pt" height="200.000000pt" viewBox="0 0 200.000000 200.000000"
 preserveAspectRatio="xMidYMid meet">

<g transform="translate(0.000000,200.000000) scale(0.100000,-0.100000)"
fill="#000000" stroke="none">
<path d="M560 1794 c-206 -55 -374 -220 -434 -423 -9 -30 -16 -64 -15 -75 0
-12 9 11 19 50 51 197 187 347 377 421 53 20 95 27 188 33 l120 7 -100 1 c-60
0 -122 -5 -155 -14z"/>
<path d="M1140 1795 c-30 -7 -75 -22 -100 -33 l-45 -19 -50 23 c-27 12 -68 25
-90 28 -31 5 -26 2 20 -12 55 -17 105 -38 105 -46 0 -1 -25 -20 -57 -42 -67
-46 -143 -134 -182 -212 -34 -67 -61 -155 -60 -191 0 -14 7 3 15 39 29 136
123 276 246 366 l50 37 37 -19 c53 -28 172 -151 208 -215 40 -71 69 -165 78
-254 6 -59 14 -82 56 -152 107 -177 108 -201 11 -247 l-60 -29 -4 -142 c-5
-157 -12 -179 -71 -215 -29 -18 -51 -20 -242 -19 -250 0 -270 5 -302 69 -13
24 -23 38 -23 30 0 -29 41 -81 75 -96 22 -9 70 -14 135 -14 l100 0 0 -115 0
-115 -340 0 -340 0 0 276 0 276 -51 56 c-61 69 -114 174 -133 262 -8 36 -15
53 -15 39 -2 -74 66 -220 149 -319 l40 -48 0 -276 0 -276 700 0 700 0 0 281 0
281 43 48 c54 60 111 167 132 246 20 76 19 233 0 309 -28 106 -74 184 -160
271 -89 91 -179 143 -287 169 -77 18 -214 18 -288 0z"/>
<path d="M103 1205 c0 -38 2 -53 4 -32 2 20 2 52 0 70 -2 17 -4 1 -4 -38z"/>
<path d="M672 1226 c-2 -28 -20 -71 -66 -150 -36 -61 -68 -123 -71 -139 -10
-39 16 -73 80 -104 l54 -27 4 -125 3 -126 2 131 2 130 -56 23 c-64 27 -89 57
-80 99 4 15 36 77 72 137 57 95 65 113 61 149 l-4 41 -1 -39z"/>
</g>
</svg>
