<?xml version="1.0" encoding="utf-8" ?>
<svg xmlns="http://www.w3.org/2000/svg" xmlns:xlink="http://www.w3.org/1999/xlink" width="1024" height="1024">
	<path fill="#FEF08A" transform="scale(2 2)" d="M265.438 484.991C261.065 484.683 256.522 485.027 252.125 484.957C198.448 484.104 145.613 464.428 104.88 429.349C-13.3033 327.567 1.56738 138.602 135.855 58.0769C170.695 37.1855 205.142 26.9292 245.591 23.9894C268.811 23.9248 291.396 25.2175 313.961 31.1509C394.433 52.3109 460.184 117.553 480.218 198.441C511.09 323.093 435.019 451.019 309.021 479.226C294.679 482.437 280.055 483.77 265.438 484.991ZM250.004 61.5144C225.337 63.4157 202.562 67.5351 179.858 77.3245C48.2774 134.06 19.9514 307.785 130.564 402.277C159.506 427.001 202.008 444.408 239.572 447.085C246.885 447.606 254.235 447.495 261.562 447.476C271.587 447.019 281.422 446.25 291.308 444.439C374.458 429.209 438.998 361.258 448.513 277.147C460.15 174.286 388.296 81.0445 286.37 64.0428C274.501 62.0629 262.043 60.9795 250.004 61.5144Z"/>
	<path fill="#FEF08A" transform="scale(2 2)" d="M261.562 423.54C155.24 428.273 70.2222 331.005 88.9766 225.817C103.65 143.518 168.848 92.5733 250.004 87.2829C295.208 85.9001 341.355 103.654 374.091 134.759C439.634 197.038 441.339 305.962 378.916 371.389C349.227 402.508 304.634 422.508 261.562 423.54ZM254.231 125.418C225.229 125.841 201.314 134.1 176.949 149.767C183.485 157.325 191.11 164.067 198.233 171.068L281.08 253.099C291.007 263.12 300.433 273.714 311.549 282.458C327.397 242.209 279.669 199.871 240.943 210.364C241.021 197.617 241.703 185.024 241.693 172.071C250.452 172.058 259.156 171.886 267.876 172.865C345.956 181.639 382.543 278.416 325.183 335.038C290.05 369.719 233.137 371.45 193.894 342.75C168.97 324.521 147.743 290.728 149.741 259.236L187.452 259.236C187.044 278.496 194.462 294.652 208.688 307.449C229.717 326.111 264.748 332.892 287.774 314.406C274.73 300.696 261.199 287.53 247.792 274.182L172.294 198.902C164.903 191.438 156.937 184.4 149.741 176.775C105.777 232.72 118.866 315.427 174.382 358.837C246.438 415.18 352.037 382.432 380.006 296.993C393.997 254.254 387.664 212.405 360.241 176.53C335.174 143.737 296.04 123.578 254.231 125.418Z"/>
</svg>
