<?xml version="1.0" encoding="utf-8" ?>
<svg xmlns="http://www.w3.org/2000/svg" xmlns:xlink="http://www.w3.org/1999/xlink" width="1024" height="1024">
	<path fill="#FEF08A" transform="scale(2 2)" d="M263.125 484.233C177.484 487.014 95.5023 437.574 56.5612 361.439C-12.0888 227.219 60.3135 55.5187 214.555 26.9448C225.883 24.8462 237.213 23.9935 248.692 23.2968C293.116 21.6922 334.382 32.9011 372.09 55.7997C480.847 121.843 513.539 265.853 447.73 374.932C416.038 427.461 363.595 466.682 303.168 479.382C289.906 482.17 276.601 483.176 263.125 484.233ZM250.597 72.5181C241.052 73.206 231.651 73.8541 222.243 75.7105C162.776 87.4452 115.714 127.904 92.5244 183.144C43.498 299.931 132.17 439.71 260.188 434.809C353.321 433.302 426.401 355.801 432.515 264.578C439.539 159.776 356.743 70.2331 251.305 72.5L250.597 72.5181Z"/>
	<path fill="#FEF08A" transform="scale(2 2)" d="M230.806 229.39L230.798 132.955C230.811 114.184 233.628 98.4336 256.139 96.8525C267.977 96.3657 279.164 104.407 281.479 116.193C282.449 121.134 282.083 126.503 282.084 131.528L282.082 228.534C296.245 220.32 312.517 207.297 325.917 197.624C331.294 193.743 336.879 189.014 342.825 186.112C367.345 174.145 390.87 205.048 372.779 226.538C367.84 232.406 359.712 236.787 353.42 241.128L308.284 272.831C281.1 292.295 282.05 305.194 282.069 337.877C282.077 352.937 282.248 368.016 282.071 383.074C281.87 400.058 270.287 409.095 253.937 408.75C243.786 408.157 233.909 400.425 231.259 390.557C229.853 385.322 230.827 379.168 230.817 373.765L230.806 331.799C230.807 323.683 231.597 314.611 230.043 306.671C225.7 284.489 208.051 275.227 191.026 263.336L145.163 231.615C125.623 218.298 129.773 187.608 153.581 183.731C168.97 181.226 178.444 192.212 190.075 200.513L230.806 229.39Z"/>
</svg>
