<?xml version="1.0" encoding="utf-8" ?>
<svg xmlns="http://www.w3.org/2000/svg" xmlns:xlink="http://www.w3.org/1999/xlink" width="1024" height="1024">
	<path fill="#fff" transform="scale(2 2)" d="M264.765 485.733C250.356 485.762 235.951 485.413 221.635 483.608C77.8848 465.491 -9.19836 312.682 37.9583 178.564C69.5808 88.6263 151.295 25.0461 247.661 23.125C260.743 23.1079 273.68 23.1285 286.7 24.6698C398.029 37.849 482.567 133.252 486.519 244.795C489.215 320.877 456.114 394.525 396.166 441.41C357.411 471.72 313.601 484.071 264.765 485.733ZM249.278 48.5223C236.597 49.379 223.963 50.5604 211.533 53.3419C77.7513 83.2781 14.2217 238.706 79.9781 357.724C106.618 405.942 152.106 442.062 205.941 454.958C225.241 459.581 243.32 460.805 263.062 460.757C347.81 458.127 416.953 405.606 445.353 326.909C493.918 192.335 398.418 44.0417 249.278 48.5223Z"/>
	<path fill="#fff" transform="scale(2 2)" d="M153.3 386.102C106.071 346.139 85.0114 285.925 95.0043 225.499C107.79 148.186 171.643 88.0822 251.015 85.6188C289.127 83.9666 329.123 98.2274 358.183 122.749C428.093 181.74 439.786 291.83 381.422 363.248C373.929 372.417 365.186 378.41 358.681 386.102C346.034 339.93 308.518 309.144 260.367 306.01C242.956 305.668 225.836 308.622 210.059 316.223C177.329 331.99 164.719 353.581 153.3 386.102ZM254.809 128.608C234.345 129.548 215.568 137.535 201.64 152.774C158.973 199.462 196.182 272.588 256.906 271.236C295.377 270.978 327.899 236.405 327.403 198.251C326.914 160.703 292.934 125.342 254.809 128.608Z"/>
	<path fill="#fff" transform="scale(2 2)" d="M256.906 234.259C209.244 233.782 209.768 165.785 254.809 165.024C284.421 162.076 302.27 202.081 281.851 223.21C275.231 230.061 266.447 234.113 256.906 234.259Z"/>
	<path fill="#fff" transform="scale(2 2)" d="M185.631 408.491C186.891 405.269 187.69 401.718 188.749 398.409C198.167 368.983 216.017 345.538 249.278 342.537C291.44 340.499 315.682 370.907 325.042 409.357C306.87 417.799 283.104 419.907 263.062 421.74C231.958 421.797 214.031 417.871 185.631 408.491Z"/>
</svg>
