<?xml version="1.0" encoding="utf-8" ?>
<svg xmlns="http://www.w3.org/2000/svg" xmlns:xlink="http://www.w3.org/1999/xlink" width="1024" height="1024">
	<path fill="#FEF08A" transform="scale(2 2)" d="M263.312 474.143C253.039 478.516 249.544 474.533 239.421 470.015C148.139 429.274 60.2445 354.564 51.8599 248.498C44.2662 152.437 107.827 63.553 200.136 37.6411C215.516 33.3238 231.31 31.0068 247.209 29.7613C334.742 27.0166 412.42 74.524 446.679 156.509C466.92 204.948 466.244 263.315 446.26 311.918C414.208 389.868 338.848 442.681 263.312 474.143ZM256.144 84.6976C183.203 85.0839 116.281 140.57 107.427 213.741C96.0755 307.551 169.466 371.333 246.005 411.335C248.582 412.682 254.368 416.992 257.188 416.222C300.356 395.786 350.801 361.442 378.746 321.305C408.545 278.505 416.465 220.322 393.801 172.606C369.614 121.686 313.906 81.1686 256.144 84.6976Z"/>
	<path fill="#FEF08A" transform="scale(2 2)" d="M262.312 282.493C204.358 286.046 170.131 220.546 206.809 175.709C218.444 161.485 234.483 154.393 252.5 152.549C286 149.613 317.789 176.062 321.852 209.229C326.451 246.768 299.032 277.981 262.312 282.493Z"/>
	<path fill="#FEF08A" transform="scale(2 2)" d="M257.188 395.426C230.071 384.401 202.482 365.251 180.829 345.244C166.199 331.725 135.676 299.406 133.095 279.688C131.126 264.653 144.513 250.212 158.997 248.34C177.044 245.96 181.511 255.432 189.547 267.234C219.93 311.853 286.55 311.964 320.981 270.809C329.849 260.208 332.146 249.16 348.645 248.693C364.021 248.259 379.421 260.116 379.54 276.211C379.679 295.062 356.91 321.036 344.718 333.398C321.515 356.776 288.141 382.449 257.188 395.426Z"/>
</svg>
